<?xml version="1.0" encoding="UTF-8"?>
<!DOCTYPE svg PUBLIC "-//W3C//DTD SVG 1.1//EN" "http://www.w3.org/Graphics/SVG/1.1/DTD/svg11.dtd">
<!-- Creator: CorelDRAW X7 -->
<svg xmlns="http://www.w3.org/2000/svg" xml:space="preserve" width="302.429mm" height="113.424mm" version="1.1" style="shape-rendering:geometricPrecision; text-rendering:geometricPrecision; image-rendering:optimizeQuality; fill-rule:evenodd; clip-rule:evenodd"
viewBox="0 0 27268 10226"
 xmlns:xlink="http://www.w3.org/1999/xlink">
 <defs>
  <style type="text/css">
   <![CDATA[
    .fil1 {fill:#009CD4}
    .fil3 {fill:#545656}
    .fil2 {fill:#6ABAE1}
    .fil0 {fill:#989898}
   ]]>
  </style>
 </defs>
 <g id="PowerClip_x0020_Contents">
  <metadata id="CorelCorpID_0Corel-Layer"/>
  <g id="_1499791313776">
   <g>
    <path class="fil0" d="M6697 2827l592 248c112,-175 150,-416 265,-574 93,216 208,458 312,668 200,402 121,367 391,614 240,221 761,894 841,1147l-1397 -3474 -366 -2 -638 1373z"/>
    <path class="fil0" d="M4091 2475l676 -8c98,-196 409,-424 657,-563 294,-163 639,-246 1027,-224l-525 914 558 144c104,-274 658,-1300 670,-1486l-436 -34c-69,115 -13,65 -378,61 -733,-7 -1242,201 -1768,670 -108,97 -425,414 -481,526z"/>
    <path class="fil0" d="M4260 5522l802 17 1168 -2224 -593 -201c-245,391 -462,798 -705,1204 -89,148 -670,1114 -672,1204z"/>
    <path class="fil0" d="M5508 5523l98 18 578 -2 100 -2 736 -1825c-118,-79 -418,-256 -581,-302l-931 2113z"/>
    <path class="fil0" d="M17528 10206l176 1c89,-193 123,-387 227,-479l26 468 174 11 323 -765 -122 -12c-93,169 -129,441 -252,589l-39 -572 -135 -15c-67,136 -181,492 -260,592 -13,-128 -12,-257 -14,-385 -2,-170 34,-221 -135,-203l31 770z"/>
    <path class="fil0" d="M20972 9646l46 557 157 2c44,-107 93,-256 158,-339l24 316c20,10 -16,32 146,21 84,-138 212,-370 245,-567 -171,-4 -122,-3 -172,153l-69 176c-36,62 -28,39 -55,63l-28 -392c-247,-3 -129,198 -299,391l-21 -367c-26,-19 -99,-52 -132,-14z"/>
    <path class="fil0" d="M22114 10196l157 13c59,-132 84,-254 160,-335l25 330 143 3c82,-127 213,-375 246,-573 -168,2 -117,-14 -166,143 -26,84 -59,145 -80,233 -80,-92 -62,-182 -73,-361l-128 -17c-40,129 -105,305 -175,404l-26 -396 -124 -6 41 562z"/>
    <path class="fil0" d="M19844 9774c-44,-2 -89,-5 -133,-5l-161 87 143 24 -29 198c-487,65 -225,-421 -173,-469 166,-151 316,2 383,-27l26 -102c-680,-311 -949,822 -269,730 170,-23 194,-116 213,-436z"/>
    <path class="fil0" d="M23699 9377c-67,135 -143,639 -159,829l117 0c58,-206 17,-432 247,-461 34,134 -30,304 -43,462 147,-4 111,52 164,-246 30,-167 48,-189 -14,-323 -123,-28 -163,0 -249,52l45 -308 -108 -5z"/>
    <path class="fil0" d="M25077 10091c-96,-124 5,-322 77,-346 224,-74 177,409 -77,346zm71 -458c-313,86 -362,676 51,574 281,-70 338,-682 -51,-574z"/>
    <path class="fil0" d="M20693 9746c45,141 -15,442 -183,349 -72,-40 -46,-182 -21,-247 38,-99 80,-116 204,-102zm-271 455c485,83 504,-483 323,-561 -324,-142 -551,357 -323,561z"/>
    <path class="fil0" d="M25579 10206c163,19 162,6 248,-78 34,64 16,71 114,78l107 -569 -112 -1c-61,112 -41,313 -135,413 -41,43 4,16 -48,36 -67,25 -88,2 -89,-90 0,-19 15,-91 20,-115 15,-77 30,-158 39,-245l-123 0c-37,184 -113,430 -21,571z"/>
    <path class="fil0" d="M24552 10205l106 1c76,-110 35,-242 152,-414 54,-80 189,-272 204,-362l-114 0 -160 262c-3,5 -8,12 -11,17 -23,30 -25,26 -45,45l-81 -324 -122 3c0,103 54,248 84,357 51,186 0,235 -13,415z"/>
    <path class="fil0" d="M18556 9865c35,-128 86,-175 200,-115 -14,129 -48,110 -200,115zm-141 263c157,154 372,119 390,-44 -145,20 -247,100 -278,-92 122,-81 228,-8 323,-128 80,-101 5,-217 -98,-239 -257,-54 -389,244 -337,503z"/>
    <path class="fil0" d="M23175 9693c24,88 -11,20 66,82 -19,142 -79,303 -10,421l177 15 26 -124 -109 1 52 -340c133,-3 113,27 140,-82l-34 -22c-40,-9 -33,-7 -74,-8 0,-122 43,-148 -96,-145 -16,28 -36,96 -47,112 -69,102 -25,-39 -91,90z"/>
    <path class="fil0" d="M19934 10204l104 2c51,-83 42,-175 69,-278 37,-136 51,-167 192,-164 54,-187 -51,-168 -108,-80 -63,-32 -110,-77 -146,-40 -42,42 -106,493 -111,560z"/>
    <path class="fil0" d="M22864 10204l109 2c58,-94 101,-433 115,-571l-123 0 -101 569z"/>
    <path class="fil0" d="M26128 10206c139,4 197,-87 128,-154 -100,-96 -134,79 -128,154z"/>
    <polygon class="fil0" points="26723,10202 26851,10204 26885,10055 26748,10041 "/>
    <path class="fil0" d="M26446 10069l-23 135c143,8 155,-18 153,-147 -50,-14 -45,-37 -130,12z"/>
    <path class="fil0" d="M23131 9401c-111,-7 -202,55 -128,127 89,85 131,-53 128,-127z"/>
   </g>
   <g>
    <path class="fil1" d="M2766 2918c74,54 547,231 670,260l-39 -255c1331,-77 2391,-62 3625,681 95,58 176,118 264,171 154,93 550,467 663,642 237,365 466,663 580,1153l771 -7c-110,-484 -556,-1052 -841,-1412 -182,-229 -483,-481 -735,-651 -732,-493 -1207,-733 -2226,-901 -1118,-185 -1325,-12 -2148,-21 -80,-156 43,-73 -97,-206 -50,71 -427,495 -487,546z"/>
    <path class="fil1" d="M6854 38c-248,84 -495,379 -371,735 92,263 383,505 764,371 712,-249 372,-1363 -393,-1106z"/>
   </g>
   <g>
    <path class="fil2" d="M23040 5606c114,83 319,66 456,23l6 -3857c296,517 994,1533 1329,2070 218,350 453,690 671,1041l344 526c179,196 259,288 643,234 165,-88 104,-679 104,-976 0,-442 25,-3136 -13,-3334 -109,-49 -335,-81 -442,5l-12 3725c-215,-291 -846,-1333 -1086,-1701 -183,-282 -357,-552 -540,-846 -160,-256 -661,-1139 -888,-1203 -184,-51 -516,-51 -567,110 -18,59 -32,3921 -5,4183z"/>
    <path class="fil2" d="M1097 3820c334,-16 694,-3 1030,-3 364,0 729,85 746,-318 19,-437 -363,-358 -719,-358 -347,0 -707,9 -1053,-3l-4 -1237c504,-18 1017,8 1520,-2 254,-5 373,-139 344,-408 -32,-286 -223,-283 -508,-282 -516,0 -1033,0 -1549,0 -669,-1 -578,179 -578,985 0,1033 3,2066 0,3098 -1,300 17,423 332,442 311,18 439,-62 439,-360 2,-518 0,-1036 0,-1554z"/>
    <path class="fil2" d="M10624 1668c1353,-90 2680,112 2660,1803 -20,1757 -1229,1879 -2669,1802l9 -3605zm-347 -354c-162,58 -132,166 -132,364l0 3505c0,506 16,462 516,462 326,0 673,12 997,-10 630,-44 1112,-243 1482,-529 855,-661 1152,-3306 -946,-3736 -293,-60 -1689,-137 -1917,-56z"/>
    <path class="fil2" d="M19973 1742l941 2337 -1879 -4 938 -2333zm-2027 3883c96,44 328,80 442,2 79,-55 476,-1109 503,-1207l2182 0 428 1066c60,145 109,221 435,176 164,-23 107,-114 55,-230 -86,-197 -162,-393 -248,-595 -219,-513 -1414,-3462 -1505,-3523 -75,-50 -268,-46 -363,-36 -150,17 -171,55 -221,179 -79,199 -163,396 -246,597l-986 2355c-88,209 -467,1051 -476,1216z"/>
    <path class="fil2" d="M17149 1913c417,-642 -1338,-908 -2045,-412 -570,399 -717,1355 381,1875 436,206 1259,434 1445,866 86,198 63,450 -32,629 -172,326 -612,474 -1100,450 -243,-11 -441,-62 -648,-142 -92,-36 -481,-241 -535,-224 -91,28 -98,201 -64,305 142,442 2544,879 2889,-500 140,-560 -84,-807 -372,-1091 -208,-204 -717,-381 -1032,-518 -366,-158 -773,-335 -861,-688 -189,-756 710,-1009 1419,-766 162,56 432,221 555,216z"/>
    <path class="fil2" d="M6180 7247l8 1537 154 17 4 -1498c94,89 397,645 493,805 84,142 162,269 243,409 76,131 163,359 347,254 64,-63 29,-1438 26,-1661l-159 -2 -2 1446c-102,-99 -333,-548 -434,-712 -145,-235 -289,-524 -438,-725l-217 -9 -25 139z"/>
    <path class="fil2" d="M8531 7231c925,-174 919,1293 280,1428 -472,99 -703,-159 -740,-568 -40,-449 79,-788 460,-860zm-82 -118c-507,133 -614,618 -543,1073 153,976 1694,879 1501,-476 -64,-456 -426,-737 -958,-597z"/>
    <path class="fil2" d="M11482 7240c914,-241 969,1241 338,1413 -460,125 -720,-143 -767,-546 -51,-435 72,-772 429,-867zm-31 -135c-903,207 -779,1956 379,1690 882,-204 776,-1956 -379,-1690z"/>
    <path class="fil2" d="M26136 7256c399,-92 918,17 962,589 57,726 -369,858 -961,803l-1 -1392zm1132 916l0 -499 -77 -158c-194,-423 -766,-475 -1197,-397 -48,158 -50,1552 12,1662 275,62 905,32 1106,-274 61,-93 96,-233 156,-334z"/>
    <path class="fil2" d="M14107 8662c17,-189 45,-591 -12,-743 -139,-66 -455,-36 -632,-19l5 123 485 8 0 558c-1396,479 -1361,-1598 -210,-1350 159,34 245,124 367,144 13,-132 -1,-144 -98,-196 -470,-250 -1236,-61 -1288,685 -66,943 859,1121 1383,790z"/>
    <path class="fil2" d="M4440 8793l152 2 6 -817 892 1 1 816 157 -4c22,-308 4,-1005 4,-1380 0,-183 59,-343 -129,-308 -17,27 -21,8 -31,63l-7 668 -880 7 -6 -649c-11,-88 -8,-47 -31,-82l-113 -12c-49,146 -30,1465 -15,1695z"/>
    <path class="fil2" d="M15353 8780l900 10 12 -127 -770 -7 -10 -681 654 -1 14 -124 -659 -8 -9 -601c450,0 790,93 761,-113 -105,-48 -736,-27 -906,-13 -47,161 -49,1554 13,1665z"/>
    <path class="fil2" d="M18756 7241l195 0c294,0 504,77 488,387 -14,274 -203,357 -488,357l-195 0 0 -744zm-158 1553l153 0 6 -674c221,0 461,14 619,-95 338,-232 310,-744 -75,-882 -134,-49 -546,-64 -690,-17 -42,159 -28,1436 -13,1668z"/>
    <path class="fil2" d="M1628 8780l901 10 11 -128 -770 -6 -9 -681 653 -4 14 -121 -659 -8 -8 -601 746 -8c29,-68 29,-3 15,-106l-43 -17c-76,-12 20,-2 -51,-7 -27,-2 -81,1 -111,1 -81,0 -163,0 -244,0 -151,0 -309,-14 -457,15 -48,158 -50,1549 12,1661z"/>
    <path class="fil2" d="M19851 7101l-12 38c0,37 -6,6 8,53l626 1601 167 4c80,-194 625,-1588 610,-1699l-123 1c-92,120 -232,587 -284,735l-202 559c-14,39 -20,64 -35,101l-52 91c-104,-149 -215,-548 -290,-749 -63,-166 -217,-641 -291,-738l-122 3z"/>
    <path class="fil2" d="M16529 8553l-16 101c152,176 613,225 840,66 264,-186 286,-560 14,-731 -210,-131 -612,-216 -637,-473 -18,-181 100,-278 264,-294 242,-25 288,83 462,115 5,-116 13,-146 -86,-191 -661,-302 -1154,423 -520,761 233,125 684,223 506,600 -90,191 -419,204 -640,107 -106,-46 -126,-87 -187,-61z"/>
    <path class="fil2" d="M4086 8642l5 -146c-130,29 -411,287 -776,119 -503,-233 -439,-1548 396,-1375 171,36 248,140 370,150 11,-437 -1190,-513 -1253,482 -54,856 579,1156 1258,770z"/>
    <path class="fil2" d="M0 7221c147,60 398,20 564,20l0 1538 159 13 5 -1551c165,0 416,40 558,-20l9 -114 -1294 -3 -1 117z"/>
    <path class="fil2" d="M21417 7232l546 12 1 1550 157 -1 4 -1552c378,0 589,74 563,-113 -123,-54 -1191,-26 -1290,-18l19 122z"/>
    <path class="fil2" d="M24495 7241l447 0 0 1539 160 11 4 -1550 549 -1c24,-61 22,-86 -10,-136l-1178 -4c-132,10 -160,141 28,141z"/>
    <path class="fil2" d="M9859 7221c0,240 -45,1430 41,1564l830 2 12 -122 -718 -15 1 -1404c0,-218 -166,-212 -166,-25z"/>
    <path class="fil2" d="M23659 7101l-29 1533c0,231 152,160 757,160 106,0 97,-19 111,-28l14 -82 -713 -33c-30,-278 10,-1334 -6,-1459 -20,-162 9,-22 -32,-87l-102 -4z"/>
    <path class="fil2" d="M14618 8781l155 9 4 -1325c0,-113 47,-358 -69,-371 -146,-16 -95,203 -95,317 0,363 -18,1083 5,1370z"/>
   </g>
   <polygon class="fil3" points="445,6509 26288,6513 26286,6173 456,6173 "/>
  </g>
 </g>
</svg>
