<?xml version="1.0" encoding="UTF-8"?>
<!DOCTYPE svg PUBLIC "-//W3C//DTD SVG 1.1//EN" "http://www.w3.org/Graphics/SVG/1.1/DTD/svg11.dtd">
<!-- Creator: CorelDRAW X7 -->
<svg xmlns="http://www.w3.org/2000/svg" xml:space="preserve" width="41.5255mm" height="41.5318mm" version="1.1" style="shape-rendering:geometricPrecision; text-rendering:geometricPrecision; image-rendering:optimizeQuality; fill-rule:evenodd; clip-rule:evenodd"
viewBox="0 0 545 545"
 xmlns:xlink="http://www.w3.org/1999/xlink">
 <defs>
  <style type="text/css">
   <![CDATA[
    .fil0 {fill:white}
   ]]>
  </style>
 </defs>
 <g id="PowerClip_x0020_Contents">
  <metadata id="CorelCorpID_0Corel-Layer"/>
  <g id="_1756662335680">
   <path class="fil0" d="M39 220c-4,-37 13,-85 37,-114 3,-4 7,-9 10,-13 12,-11 22,-20 36,-29 26,-16 52,-23 85,-25 43,-4 96,17 127,47 32,33 53,71 55,121 2,51 -18,97 -53,132 -30,29 -73,49 -116,50 -74,1 -134,-39 -164,-99 -11,-22 -15,-41 -17,-70zm388 8c4,-44 -9,-93 -32,-128 -4,-5 -7,-11 -11,-16 -13,-18 -30,-33 -47,-46 -55,-41 -138,-49 -201,-24 -13,5 -26,12 -36,18 -13,9 -26,19 -37,30 -3,2 -4,5 -6,7 -5,4 -9,9 -13,14 -54,70 -59,171 -11,245 17,26 27,36 50,55 33,27 75,41 117,44 65,6 125,-24 158,-55 2,-2 4,-4 7,-7l12 -14c30,-34 46,-75 50,-123z"/>
   <path class="fil0" d="M473 513l40 -40c-1,-3 -81,-82 -91,-91 -5,-6 -10,-10 -15,-16 -4,-4 -10,-11 -15,-14 -3,4 -6,7 -9,11 -2,3 -7,7 -10,10 -3,3 -7,7 -10,10l-11 9 121 121z"/>
   <path class="fil0" d="M482 522c4,4 16,18 22,21 21,10 51,-10 39,-39 -3,-6 -17,-18 -21,-23 -2,1 -40,39 -40,41z"/>
   <path class="fil0" d="M231 138c-3,1 -3,0 -5,8 -1,3 -2,6 -3,9l-16 60c-3,14 -7,27 -10,40 -1,4 -8,27 -8,31 1,3 5,5 9,3 4,-1 10,-32 12,-38 2,-9 29,-106 28,-109 0,-4 -4,-5 -7,-4z"/>
   <path class="fil0" d="M259 176c8,8 25,20 35,28l11 8c1,1 0,0 1,2l-41 32c-4,3 -11,8 -2,13 4,2 11,-6 17,-10l39 -30c9,-7 -3,-13 -14,-21l-31 -24c-4,-4 -9,-9 -14,-4 -2,1 -2,3 -1,6z"/>
   <path class="fil0" d="M157 186c0,0 -1,1 0,0zm-36 28l29 -22c3,-3 18,-14 19,-17 1,-5 -2,-8 -6,-7 -3,0 -38,28 -44,33 -12,10 -19,11 -8,19 3,3 4,4 7,6l28 22c3,2 5,4 7,6 2,0 7,5 8,5 5,2 13,-4 3,-12l-43 -33z"/>
  </g>
 </g>
</svg>
