<?xml version="1.0" encoding="UTF-8"?>
<!DOCTYPE svg PUBLIC "-//W3C//DTD SVG 1.1//EN" "http://www.w3.org/Graphics/SVG/1.1/DTD/svg11.dtd">
<!-- Creator: CorelDRAW X7 -->
<svg xmlns="http://www.w3.org/2000/svg" xml:space="preserve" width="38.6328mm" height="35.2977mm" version="1.1" style="shape-rendering:geometricPrecision; text-rendering:geometricPrecision; image-rendering:optimizeQuality; fill-rule:evenodd; clip-rule:evenodd"
viewBox="0 0 684 625"
 xmlns:xlink="http://www.w3.org/1999/xlink">
 <defs>
  <style type="text/css">
   <![CDATA[
    .fil0 {fill:white}
   ]]>
  </style>
 </defs>
 <g id="PowerClip_x0020_Contents">
  <metadata id="CorelCorpID_0Corel-Layer"/>
  <g id="_1757105554000">
   <path class="fil0" d="M477 521l181 -1 -1 85 -26 0 -127 0 -26 0 -1 -84zm-378 -138c30,-13 120,-48 149,-49 47,-1 155,-8 183,9 -17,18 -34,18 -77,34 -202,71 -219,105 -255,6zm-19 -49l82 2 -72 25 -10 -27zm487 -145l13 12c1,2 1,3 2,5 13,23 23,51 19,79 -11,7 -28,13 -34,17l0 -113zm16 130c82,-41 30,-77 6,-156 39,25 69,59 69,133 -1,68 0,137 0,204l-185 -1c-18,-23 -27,-42 -27,-76 1,-36 12,-46 20,-73 -27,-30 -155,-130 -78,-152 34,-9 76,44 92,60l124 113 15 -17 -36 -35zm-554 -286c24,-21 392,-11 444,-11 60,0 71,-5 72,55l0 206c-52,-37 -73,-64 -103,-89 -42,-36 -108,-15 -101,53 15,31 39,38 53,66 -75,-1 -150,0 -224,0 -150,0 -145,14 -145,-78l4 -202zm403 340c-10,46 -14,78 9,119 25,45 7,75 16,130l221 3c12,-79 3,-227 3,-311 0,-98 -32,-146 -113,-197 -3,-138 14,-116 -301,-116 -285,0 -265,-26 -265,149 0,59 -14,152 28,176 27,15 15,-11 45,59 40,95 27,104 197,43 47,-17 112,-43 160,-55z"/>
   <path class="fil0" d="M83 85c-12,-10 -5,3 -12,-14 16,-11 50,-13 67,0 -7,24 -13,4 -23,25 12,19 16,-2 22,24 -16,10 -49,10 -66,0 10,-28 42,-11 12,-35zm-31 -35c-10,98 -6,97 57,97 51,0 49,-11 53,-51 6,-61 -32,-53 -71,-53 -14,0 -32,2 -39,7z"/>
   <path class="fil0" d="M105 262l0 -22 -46 0c3,34 -9,16 13,22 0,0 30,0 33,0z"/>
   <path class="fil0" d="M195 193c2,1 -4,11 29,6 22,-4 10,-3 16,-6 -7,-16 18,-13 -22,-17 -35,-2 -20,12 -23,17z"/>
   <path class="fil0" d="M59 193c4,2 17,15 46,0 -7,-17 15,-13 -20,-17 -39,-3 -22,11 -26,17z"/>
   <path class="fil0" d="M262 247c5,15 -9,15 23,15 32,0 18,0 23,-15 -16,-12 -30,-13 -46,0z"/>
   <path class="fil0" d="M262 193c14,9 32,9 46,0 -4,-12 8,-16 -23,-16 -37,0 -18,9 -23,16z"/>
   <path class="fil0" d="M127 198l45 -5c-4,-9 12,-20 -27,-17 -32,3 -15,-1 -18,22z"/>
   <polygon class="fil0" points="477,85 500,85 500,53 477,53 "/>
   <path class="fil0" d="M454 84l0 -30 -22 0c0,35 -8,30 22,30z"/>
   <path class="fil0" d="M364 85l0 -31 -18 0c-12,25 -9,29 18,31z"/>
   <path class="fil0" d="M394 85c21,-6 20,-9 13,-30l-20 -2c0,25 -1,21 7,32z"/>
   <path class="fil0" d="M522 557c-4,-18 5,-15 -21,-14l-1 18 22 -4z"/>
  </g>
 </g>
</svg>
