<?xml version="1.0" encoding="UTF-8"?>
<!DOCTYPE svg PUBLIC "-//W3C//DTD SVG 1.1//EN" "http://www.w3.org/Graphics/SVG/1.1/DTD/svg11.dtd">
<!-- Creator: CorelDRAW X7 -->
<svg xmlns="http://www.w3.org/2000/svg" xml:space="preserve" width="46.2657mm" height="48.1675mm" version="1.1" style="shape-rendering:geometricPrecision; text-rendering:geometricPrecision; image-rendering:optimizeQuality; fill-rule:evenodd; clip-rule:evenodd"
viewBox="0 0 3853 4012"
 xmlns:xlink="http://www.w3.org/1999/xlink">
 <defs>
  <style type="text/css">
   <![CDATA[
    .fil0 {fill:white}
   ]]>
  </style>
 </defs>
 <g id="PowerClip_x0020_Contents">
  <metadata id="CorelCorpID_0Corel-Layer"/>
  <g id="_1757031965120">
   <path class="fil0" d="M334 196c102,-47 2254,-23 2666,-23 280,0 633,-68 669,219 19,151 4,2338 4,2690 0,272 66,645 -151,735 -111,46 -2258,22 -2676,22 -281,0 -633,68 -669,-220 -19,-151 -3,-2337 -3,-2690 0,-415 -64,-629 160,-733zm7 -181c-310,67 -334,303 -334,645l0 1961c0,314 -16,672 1,980 20,362 301,405 569,404 371,-1 2787,20 2933,-9 360,-71 329,-426 329,-644 0,-327 0,-654 0,-981 0,-627 33,-1345 -1,-1961 -19,-359 -299,-404 -569,-404 -327,1 -654,-1 -981,0 -269,0 -1819,-18 -1947,9z"/>
   <path class="fil0" d="M1674 1672l499 2 0 165 -500 -1 1 -166zm165 -173c-283,39 -333,-86 -333,257 0,347 51,214 333,256 1,99 -36,322 84,323 120,0 83,-224 84,-326l289 -14c55,-73 59,-263 43,-392 -19,-149 -185,-84 -332,-104 -1,-239 30,-937 -13,-1124 -72,-45 -69,-44 -142,0 -43,190 -12,882 -13,1124z"/>
   <path class="fil0" d="M680 1340l490 0 3 165 -500 0 7 -165zm-138 -156c-47,78 -50,272 -35,397 15,138 181,85 324,94 29,126 -64,659 92,660 156,0 64,-533 92,-660 102,-7 226,16 298,-30 59,-87 39,-381 -8,-468l-294 -9c-25,-227 29,-591 -16,-793 -74,-45 -69,-43 -153,0l-7 795 -293 14z"/>
   <path class="fil0" d="M2680 840l490 0 2 166 -500 -1 8 -165zm155 -171l-294 8c-54,103 -35,208 -35,348 2,216 121,136 325,150 66,294 -95,1160 92,1160 188,-1 24,-859 92,-1160 323,-23 324,103 324,-342 0,-82 -6,-100 -34,-149l-294 -14 -10 -295c-204,-122 -150,139 -166,294z"/>
   <path class="fil0" d="M2827 2866c307,-151 504,346 199,454 -299,107 -495,-309 -199,-454zm505 332c147,-539 -668,-738 -803,-222 -68,260 103,464 292,515 251,67 460,-104 511,-293z"/>
   <path class="fil0" d="M679 3140c-58,-343 422,-412 486,-107 73,347 -436,399 -486,107zm651 39c54,-246 -126,-454 -315,-496 -539,-120 -717,706 -179,813 259,52 450,-118 494,-317z"/>
   <path class="fil0" d="M1872 2848c327,-80 407,402 122,480 -322,88 -468,-395 -122,-480zm-362 292c22,214 215,390 467,362 539,-61 442,-892 -112,-826 -202,24 -380,228 -355,464z"/>
  </g>
 </g>
</svg>
