<?xml version="1.0" encoding="UTF-8"?>
<!DOCTYPE svg PUBLIC "-//W3C//DTD SVG 1.1//EN" "http://www.w3.org/Graphics/SVG/1.1/DTD/svg11.dtd">
<!-- Creator: CorelDRAW X7 -->
<svg xmlns="http://www.w3.org/2000/svg" xml:space="preserve" width="40.8623mm" height="40.9554mm" version="1.1" style="shape-rendering:geometricPrecision; text-rendering:geometricPrecision; image-rendering:optimizeQuality; fill-rule:evenodd; clip-rule:evenodd"
viewBox="0 0 1222 1224"
 xmlns:xlink="http://www.w3.org/1999/xlink">
 <defs>
  <style type="text/css">
   <![CDATA[
    .fil0 {fill:white}
   ]]>
  </style>
 </defs>
 <g id="PowerClip_x0020_Contents">
  <metadata id="CorelCorpID_0Corel-Layer"/>
  <g id="_1757105612304">
   <path class="fil0" d="M66 1224l426 0 4 -2c27,-18 11,-47 -9,-48 -27,-2 -63,-1 -90,-1l-273 0c-36,0 -63,7 -72,-18 -4,-12 -1,-154 -1,-179l0 -815c0,-117 -13,-109 73,-109l451 0c28,0 166,-2 182,0 12,1 20,12 26,19l159 158c29,29 26,20 26,63l0 136c0,16 5,25 16,30 14,5 27,-2 32,-11 6,-10 4,-28 4,-42 -1,-30 0,-61 0,-91 -1,-87 2,-76 -52,-131l-135 -135c-54,-53 -49,-47 -135,-47l-541 0c-11,0 -22,-1 -32,-1l-43 0c-29,2 -54,10 -71,37 -14,24 -11,48 -11,79l0 995c0,33 -3,54 12,78 20,32 50,32 54,35z"/>
   <path class="fil0" d="M613 919c-5,-39 4,-93 16,-123 16,-39 29,-61 52,-87 36,-42 105,-90 186,-95 121,-8 221,51 272,145 14,28 30,70 32,108 8,122 -50,222 -145,273 -142,75 -304,21 -380,-113 -18,-31 -27,-66 -33,-108zm248 305l66 0c5,-3 9,-2 17,-4 7,-1 11,-2 17,-3 132,-28 237,-136 258,-266 4,-25 2,-52 2,-78 0,-47 -15,-95 -33,-128 -106,-205 -368,-243 -528,-88 -90,87 -128,234 -74,362 17,41 37,71 62,99 58,62 124,92 207,104l6 2z"/>
   <path class="fil0" d="M867 762c0,55 1,166 0,221 -6,-2 -54,-53 -63,-61 -8,-8 -21,-24 -41,-12 -13,8 -16,27 0,43 21,21 41,41 62,62l46 47c12,13 30,13 42,0l46 -47c21,-21 41,-41 62,-62 27,-27 0,-52 -21,-46 -16,4 -71,73 -82,75 -2,-74 0,-153 0,-228 0,-19 0,-27 -12,-35 -11,-8 -25,-4 -32,4 -9,10 -7,23 -7,39z"/>
   <path class="fil0" d="M600 512c-29,29 -58,58 -88,88 -15,15 -29,29 -44,44 -21,21 -1,52 24,44 9,-3 18,-14 25,-20 7,-8 14,-14 21,-22l109 -109c7,-6 16,-14 16,-27 0,-14 -26,-36 -39,-49l-88 -88c-9,-8 -35,-39 -47,-40 -22,-3 -44,21 -19,47l87 87c7,6 40,36 43,45z"/>
   <path class="fil0" d="M216 511c2,-5 111,-113 131,-132 24,-24 1,-52 -22,-46 -11,3 -38,34 -47,42l-87 87c-16,16 -39,33 -38,51 1,14 28,36 41,49l87 88c12,11 35,38 47,39 15,1 24,-7 28,-17 5,-14 -4,-24 -10,-30 -18,-18 -120,-118 -130,-131z"/>
  </g>
 </g>
</svg>
